# xmcd
#
# Track frame offsets:
#	150
#	17125
#	34555
#	51883
#	69748
#	84265
#	102512
#	119841
#	131870
#
# Disc length: 2008 seconds
#
# Revision: 1
# Processed by: cddbd v1.5.2PL0 Copyright (c) Steve Scherf et al.
# Submitted via: audiograbber 1.83.01
#
DISCID=7e07d609
DTITLE=Singers Solution - SS-C430
DYEAR=2014
DGENRE=Karaoke
TTITLE0=Brantley Gilbert - Bottoms Up
TTITLE1=Jerrod Neimann - Drink To That All Night
TTITLE2=Frankie Ballard - Helluva Life
TTITLE3=Scotty Mccreery - See You Tonight
TTITLE4=Little Big Town - Sober
TTITLE5=Dierks Bentley - I Hold On
TTITLE6=Florida Georgia Line  - This Is How We Roll
TTITLE7=Hunter Hayes and Jason Mraz - Everybodys Got Somebody But Me
TTITLE8=Eric Church - Give Me Back My Hometown
EXTD=
EXTT0=
EXTT1=
EXTT2=
EXTT3=
EXTT4=
EXTT5=
EXTT6=
EXTT7=
EXTT8=
PLAYORDER=
